Coordinates
version=1
nRows=6
nColumns=36
inDegrees=yes

Units are S.I. units (second, meters, Newtons, ...)
If the header above contains a line with 'inDegrees', this indicates whether rotational values are in degrees (yes) or radians (no).

endheader
time	pelvis_tilt	pelvis_list	pelvis_rotation	pelvis_tx	pelvis_ty	pelvis_tz	hip_flexion_r	hip_adduction_r	hip_rotation_r	knee_angle_r	knee_angle_r_beta	ankle_angle_r	subtalar_angle_r	mtp_angle_r	hip_flexion_l	hip_adduction_l	hip_rotation_l	knee_angle_l	knee_angle_l_beta	ankle_angle_l	subtalar_angle_l	mtp_angle_l	lumbar_extension	lumbar_bending	lumbar_rotation	arm_flex_r	arm_add_r	arm_rot_r	elbow_flex_r	pro_sup_r	arm_flex_l	arm_add_l	arm_rot_l	elbow_flex_l	pro_sup_l
      4.58333330	      2.80290635	     -3.86878305	      3.50559767	      0.19630696	      0.99949190	     -0.18333793	     23.19202339	      3.67111811	     -3.58744971	     16.56812992	      0.28916842	      4.70251952	     -0.92652151	     -7.49999987	    -21.56704803	     -4.25897130	      3.69685373	     15.80183084	      0.27579398	      6.46127208	     -7.82978361	     -7.49999987	     -6.80228775	      6.79460283	      2.40799399	    -27.39286649	     -5.99347826	     -0.54212026	     16.35305550	     74.99803372	     15.01576079	    -16.06059605	     16.73466743	     40.56598683	     67.02982253
      4.60000000	      3.18025579	     -4.28534837	      3.30252743	      0.22410650	      1.00266213	     -0.18076337	     22.39415836	      4.51509768	     -3.00090108	     18.78323708	      0.32782933	      3.79549595	     -2.08126826	     -7.49999987	    -20.93238644	     -4.95298366	      2.76102795	     19.86784782	      0.34675936	      1.97212467	     -8.29939354	     -7.49999987	     -6.94022951	      7.24870748	      1.85384835	    -26.27185365	     -6.60254004	      1.92615853	     15.11959691	     74.34207969	     13.37576698	    -16.17638634	     15.65819703	     41.65619688	     65.09826776
      4.61666670	      3.90407827	     -4.67677244	      2.97488303	      0.25184520	      1.00696394	     -0.17804237	     20.82656217	      5.39839039	     -2.48074357	     20.28438170	      0.35402925	      3.47056871	     -2.98070945	     -7.49999987	    -20.01453373	     -5.64155219	      1.78547011	     24.79320361	      0.43272304	     -3.53030085	     -8.74574299	     -7.49999987	     -7.56813610	      7.69171012	      2.46290830	    -25.97673751	     -6.95830023	      2.24685871	     15.91701315	     73.60078681	     12.34051649	    -15.81635962	     15.62668847	     42.04471107	     64.61856372
      4.63333330	      4.57209668	     -4.96866147	      2.65025711	      0.27796835	      1.01009992	     -0.17508983	     18.84830824	      6.18326566	     -2.03525691	     20.83472065	      0.36363447	      3.65182995	     -3.52989760	     -7.49999987	    -18.43382278	     -6.26154679	      1.11807984	     30.40778353	      0.53071594	     -9.09874113	     -9.04028092	     -7.49999987	     -8.11862731	      7.97407076	      3.07601981	    -25.33827728	     -7.30972006	      2.55415627	     16.47619391	     73.03912787	     11.26601170	    -15.52120587	     15.80098649	     42.05890646	     64.26568819
      4.65000000	      5.05108112	     -4.99186086	      2.45581308	      0.30266770	      1.01202392	     -0.17242756	     16.75906016	      6.60802630	     -1.75893738	     20.68102179	      0.36095192	      4.20358842	     -3.91713719	     -7.49999987	    -16.24324104	     -6.57899802	      1.03232586	     36.22569800	      0.63225770	    -13.53431821	     -9.28185238	     -7.49999987	     -8.44719296	      7.90846251	      3.60900917	    -24.24269882	     -7.52545735	      3.80006779	     16.22194277	     72.10657731	     10.37270215	    -15.29852439	     16.69781927	     41.49130961	     63.49004720
      4.66666670	      5.46518562	     -4.95459074	      2.31253506	      0.32689068	      1.01450860	     -0.17028132	     14.54143971	      6.91308766	     -1.58304411	     20.02667828	      0.34953147	      4.88741815	     -4.14567262	     -7.49999987	    -13.90891279	     -6.72162432	      1.22868482	     41.70504679	      0.72789038	    -15.92155205	     -9.56702601	     -7.49999987	     -8.94989113	      7.83566554	      4.15644698	    -23.57025816	     -7.84136554	      3.85061833	     17.31317623	     71.69015806	      9.31855770	    -15.17492116	     17.01107840	     41.44840769	     63.33331452
